<mxfile host="app.diagrams.net" modified="2023-05-28T19:55:42.030Z" agent="Mozilla/5.0 (Windows NT 10.0; Win64; x64) AppleWebKit/537.36 (KHTML, like Gecko) Chrome/113.0.0.0 Safari/537.36" etag="EVammmJDdfW1VFRElqAH" version="21.2.3" type="device">
  <diagram name="Page-1" id="emP0VUBakuaVA01eBIjA">
    <mxGraphModel dx="4200" dy="3461" grid="1" gridSize="10" guides="1" tooltips="1" connect="1" arrows="1" fold="1" page="1" pageScale="1" pageWidth="827" pageHeight="1169" math="0" shadow="0">
      <root>
        <mxCell id="0" />
        <mxCell id="1" parent="0" />
        <mxCell id="dNh84J1RXSs0RukvZHGs-19" style="edgeStyle=orthogonalEdgeStyle;rounded=0;orthogonalLoop=1;jettySize=auto;html=1;entryX=0;entryY=0.5;entryDx=0;entryDy=0;exitX=0;exitY=0.5;exitDx=0;exitDy=0;" edge="1" parent="1" source="dNh84J1RXSs0RukvZHGs-18" target="dNh84J1RXSs0RukvZHGs-3">
          <mxGeometry relative="1" as="geometry">
            <mxPoint x="50" y="240" as="targetPoint" />
            <mxPoint x="110" y="640" as="sourcePoint" />
            <Array as="points">
              <mxPoint x="40" y="657" />
              <mxPoint x="40" y="228" />
            </Array>
          </mxGeometry>
        </mxCell>
        <mxCell id="dNh84J1RXSs0RukvZHGs-41" value="" style="group" vertex="1" connectable="0" parent="1">
          <mxGeometry x="110" y="-1" width="140" height="350" as="geometry" />
        </mxCell>
        <mxCell id="dNh84J1RXSs0RukvZHGs-35" value="" style="group" vertex="1" connectable="0" parent="dNh84J1RXSs0RukvZHGs-41">
          <mxGeometry width="120" height="140" as="geometry" />
        </mxCell>
        <mxCell id="dNh84J1RXSs0RukvZHGs-1" value="" style="ellipse;html=1;shape=startState;fillColor=#000000;strokeColor=#ff0000;" vertex="1" parent="dNh84J1RXSs0RukvZHGs-35">
          <mxGeometry x="45" width="30" height="30" as="geometry" />
        </mxCell>
        <mxCell id="dNh84J1RXSs0RukvZHGs-32" value="" style="edgeStyle=orthogonalEdgeStyle;html=1;verticalAlign=bottom;endArrow=open;endSize=8;strokeColor=#ff0000;rounded=0;entryX=0.5;entryY=0;entryDx=0;entryDy=0;" edge="1" parent="dNh84J1RXSs0RukvZHGs-35" target="dNh84J1RXSs0RukvZHGs-33">
          <mxGeometry relative="1" as="geometry">
            <mxPoint x="59.5" y="85" as="targetPoint" />
            <mxPoint x="59.5" y="25" as="sourcePoint" />
          </mxGeometry>
        </mxCell>
        <mxCell id="dNh84J1RXSs0RukvZHGs-33" value="User visit website" style="rounded=1;whiteSpace=wrap;html=1;arcSize=40;fontColor=#000000;fillColor=#ffffc0;strokeColor=#ff0000;" vertex="1" parent="dNh84J1RXSs0RukvZHGs-35">
          <mxGeometry y="100" width="120" height="40" as="geometry" />
        </mxCell>
        <mxCell id="dNh84J1RXSs0RukvZHGs-38" value="" style="group" vertex="1" connectable="0" parent="dNh84J1RXSs0RukvZHGs-41">
          <mxGeometry x="20" y="209" width="120" height="141" as="geometry" />
        </mxCell>
        <mxCell id="dNh84J1RXSs0RukvZHGs-3" value="" style="rhombus;whiteSpace=wrap;html=1;fontColor=#000000;fillColor=#ffffc0;strokeColor=#ff0000;" vertex="1" parent="dNh84J1RXSs0RukvZHGs-38">
          <mxGeometry width="80" height="40" as="geometry" />
        </mxCell>
        <mxCell id="dNh84J1RXSs0RukvZHGs-7" value="" style="edgeStyle=orthogonalEdgeStyle;html=1;verticalAlign=bottom;endArrow=open;endSize=8;strokeColor=#ff0000;rounded=0;" edge="1" parent="dNh84J1RXSs0RukvZHGs-38">
          <mxGeometry relative="1" as="geometry">
            <mxPoint x="39.5" y="100" as="targetPoint" />
            <mxPoint x="39.5" y="40" as="sourcePoint" />
          </mxGeometry>
        </mxCell>
        <mxCell id="dNh84J1RXSs0RukvZHGs-8" value="Enter Login Details" style="rounded=1;whiteSpace=wrap;html=1;arcSize=40;fontColor=#000000;fillColor=#ffffc0;strokeColor=#ff0000;" vertex="1" parent="dNh84J1RXSs0RukvZHGs-38">
          <mxGeometry x="-20" y="99" width="120" height="40" as="geometry" />
        </mxCell>
        <mxCell id="dNh84J1RXSs0RukvZHGs-34" value="" style="edgeStyle=orthogonalEdgeStyle;html=1;verticalAlign=bottom;endArrow=open;endSize=8;strokeColor=#ff0000;rounded=0;entryX=0.5;entryY=0;entryDx=0;entryDy=0;" edge="1" source="dNh84J1RXSs0RukvZHGs-33" parent="dNh84J1RXSs0RukvZHGs-41" target="dNh84J1RXSs0RukvZHGs-3">
          <mxGeometry relative="1" as="geometry">
            <mxPoint x="95" y="210" as="targetPoint" />
          </mxGeometry>
        </mxCell>
        <mxCell id="dNh84J1RXSs0RukvZHGs-43" value="" style="group" vertex="1" connectable="0" parent="1">
          <mxGeometry x="105" y="530" width="290" height="147" as="geometry" />
        </mxCell>
        <mxCell id="dNh84J1RXSs0RukvZHGs-42" value="" style="group" vertex="1" connectable="0" parent="dNh84J1RXSs0RukvZHGs-43">
          <mxGeometry width="290" height="147" as="geometry" />
        </mxCell>
        <mxCell id="dNh84J1RXSs0RukvZHGs-10" value="" style="rhombus;whiteSpace=wrap;html=1;fontColor=#000000;fillColor=#ffffc0;strokeColor=#ff0000;" vertex="1" parent="dNh84J1RXSs0RukvZHGs-42">
          <mxGeometry x="25" y="8" width="80" height="40" as="geometry" />
        </mxCell>
        <mxCell id="dNh84J1RXSs0RukvZHGs-14" value="" style="edgeStyle=orthogonalEdgeStyle;html=1;verticalAlign=bottom;endArrow=open;endSize=8;strokeColor=#ff0000;rounded=0;" edge="1" parent="dNh84J1RXSs0RukvZHGs-42">
          <mxGeometry relative="1" as="geometry">
            <mxPoint x="64.5" y="108" as="targetPoint" />
            <mxPoint x="64.5" y="48" as="sourcePoint" />
          </mxGeometry>
        </mxCell>
        <mxCell id="dNh84J1RXSs0RukvZHGs-15" value="invalid" style="text;html=1;align=center;verticalAlign=middle;resizable=0;points=[];autosize=1;strokeColor=none;fillColor=none;" vertex="1" parent="dNh84J1RXSs0RukvZHGs-42">
          <mxGeometry x="70" y="65" width="60" height="30" as="geometry" />
        </mxCell>
        <mxCell id="dNh84J1RXSs0RukvZHGs-16" value="" style="edgeStyle=orthogonalEdgeStyle;html=1;verticalAlign=bottom;endArrow=open;endSize=8;strokeColor=#ff0000;rounded=0;entryX=0.5;entryY=0;entryDx=0;entryDy=0;" edge="1" parent="dNh84J1RXSs0RukvZHGs-42" target="dNh84J1RXSs0RukvZHGs-20">
          <mxGeometry relative="1" as="geometry">
            <mxPoint x="230" y="88" as="targetPoint" />
            <mxPoint x="105" y="27" as="sourcePoint" />
            <Array as="points">
              <mxPoint x="105" y="28" />
              <mxPoint x="230" y="28" />
            </Array>
          </mxGeometry>
        </mxCell>
        <mxCell id="dNh84J1RXSs0RukvZHGs-17" value="valid&lt;br&gt;" style="text;html=1;align=center;verticalAlign=middle;resizable=0;points=[];autosize=1;strokeColor=none;fillColor=none;" vertex="1" parent="dNh84J1RXSs0RukvZHGs-42">
          <mxGeometry x="140" width="50" height="30" as="geometry" />
        </mxCell>
        <mxCell id="dNh84J1RXSs0RukvZHGs-18" value="System Prompt error message" style="rounded=1;whiteSpace=wrap;html=1;arcSize=40;fontColor=#000000;fillColor=#ffffc0;strokeColor=#ff0000;" vertex="1" parent="dNh84J1RXSs0RukvZHGs-42">
          <mxGeometry y="107" width="120" height="40" as="geometry" />
        </mxCell>
        <mxCell id="dNh84J1RXSs0RukvZHGs-20" value="System prompt main page" style="rounded=1;whiteSpace=wrap;html=1;arcSize=40;fontColor=#000000;fillColor=#ffffc0;strokeColor=#ff0000;" vertex="1" parent="dNh84J1RXSs0RukvZHGs-42">
          <mxGeometry x="170" y="107" width="120" height="40" as="geometry" />
        </mxCell>
        <mxCell id="dNh84J1RXSs0RukvZHGs-47" style="edgeStyle=orthogonalEdgeStyle;rounded=0;orthogonalLoop=1;jettySize=auto;html=1;entryX=0.5;entryY=0;entryDx=0;entryDy=0;" edge="1" parent="1" source="dNh84J1RXSs0RukvZHGs-44" target="dNh84J1RXSs0RukvZHGs-10">
          <mxGeometry relative="1" as="geometry">
            <mxPoint x="170" y="480" as="targetPoint" />
          </mxGeometry>
        </mxCell>
        <mxCell id="dNh84J1RXSs0RukvZHGs-44" value="System Validates Login Details" style="rounded=1;whiteSpace=wrap;html=1;arcSize=40;fontColor=#000000;fillColor=#ffffc0;strokeColor=#ff0000;" vertex="1" parent="1">
          <mxGeometry x="110" y="413" width="120" height="40" as="geometry" />
        </mxCell>
        <mxCell id="dNh84J1RXSs0RukvZHGs-45" value="" style="edgeStyle=orthogonalEdgeStyle;rounded=0;orthogonalLoop=1;jettySize=auto;html=1;" edge="1" parent="1" source="dNh84J1RXSs0RukvZHGs-8" target="dNh84J1RXSs0RukvZHGs-44">
          <mxGeometry relative="1" as="geometry" />
        </mxCell>
        <mxCell id="dNh84J1RXSs0RukvZHGs-63" style="edgeStyle=orthogonalEdgeStyle;rounded=0;orthogonalLoop=1;jettySize=auto;html=1;exitX=0.5;exitY=1;exitDx=0;exitDy=0;" edge="1" parent="1" source="dNh84J1RXSs0RukvZHGs-54">
          <mxGeometry relative="1" as="geometry">
            <mxPoint x="335" y="840" as="targetPoint" />
          </mxGeometry>
        </mxCell>
        <mxCell id="dNh84J1RXSs0RukvZHGs-54" value="Go to the Validate the identification&amp;nbsp;&lt;span style=&quot;text-align: left;&quot;&gt;of customer&lt;/span&gt;" style="rounded=1;whiteSpace=wrap;html=1;arcSize=40;fontColor=#000000;fillColor=#ffffc0;strokeColor=#ff0000;" vertex="1" parent="1">
          <mxGeometry x="255" y="740" width="160" height="40" as="geometry" />
        </mxCell>
        <mxCell id="dNh84J1RXSs0RukvZHGs-57" value="" style="group" vertex="1" connectable="0" parent="1">
          <mxGeometry x="255" y="841" width="160" height="139" as="geometry" />
        </mxCell>
        <mxCell id="dNh84J1RXSs0RukvZHGs-56" value="" style="edgeStyle=orthogonalEdgeStyle;rounded=0;orthogonalLoop=1;jettySize=auto;html=1;" edge="1" parent="dNh84J1RXSs0RukvZHGs-57" source="dNh84J1RXSs0RukvZHGs-21">
          <mxGeometry relative="1" as="geometry">
            <mxPoint x="80" y="120" as="targetPoint" />
          </mxGeometry>
        </mxCell>
        <mxCell id="dNh84J1RXSs0RukvZHGs-21" value="System prompt to select Local or foreign&amp;nbsp;" style="rounded=1;whiteSpace=wrap;html=1;arcSize=40;fontColor=#000000;fillColor=#ffffc0;strokeColor=#ff0000;" vertex="1" parent="dNh84J1RXSs0RukvZHGs-57">
          <mxGeometry width="160" height="40" as="geometry" />
        </mxCell>
        <mxCell id="dNh84J1RXSs0RukvZHGs-48" value="" style="rhombus;whiteSpace=wrap;html=1;fontColor=#000000;fillColor=#ffffc0;strokeColor=#ff0000;" vertex="1" parent="dNh84J1RXSs0RukvZHGs-57">
          <mxGeometry x="40" y="99" width="80" height="40" as="geometry" />
        </mxCell>
        <mxCell id="dNh84J1RXSs0RukvZHGs-24" value="" style="edgeStyle=orthogonalEdgeStyle;rounded=0;orthogonalLoop=1;jettySize=auto;html=1;entryX=0.5;entryY=0;entryDx=0;entryDy=0;" edge="1" parent="dNh84J1RXSs0RukvZHGs-57" source="dNh84J1RXSs0RukvZHGs-21" target="dNh84J1RXSs0RukvZHGs-48">
          <mxGeometry relative="1" as="geometry">
            <mxPoint x="339" y="906" as="targetPoint" />
          </mxGeometry>
        </mxCell>
        <mxCell id="dNh84J1RXSs0RukvZHGs-62" style="edgeStyle=orthogonalEdgeStyle;rounded=0;orthogonalLoop=1;jettySize=auto;html=1;exitX=0.5;exitY=1;exitDx=0;exitDy=0;entryX=0.5;entryY=0;entryDx=0;entryDy=0;" edge="1" parent="1" source="dNh84J1RXSs0RukvZHGs-20" target="dNh84J1RXSs0RukvZHGs-54">
          <mxGeometry relative="1" as="geometry">
            <mxPoint x="335" y="730" as="targetPoint" />
          </mxGeometry>
        </mxCell>
        <mxCell id="dNh84J1RXSs0RukvZHGs-73" value="" style="group" vertex="1" connectable="0" parent="1">
          <mxGeometry x="429" y="958" width="270" height="45" as="geometry" />
        </mxCell>
        <mxCell id="dNh84J1RXSs0RukvZHGs-66" value="System prompts to input the passport number&amp;nbsp;" style="rounded=1;whiteSpace=wrap;html=1;arcSize=40;fontColor=#000000;fillColor=#ffffc0;strokeColor=#ff0000;" vertex="1" parent="dNh84J1RXSs0RukvZHGs-73">
          <mxGeometry x="102" y="5" width="168" height="40" as="geometry" />
        </mxCell>
        <mxCell id="dNh84J1RXSs0RukvZHGs-74" value="" style="group" vertex="1" connectable="0" parent="1">
          <mxGeometry x="74.5" y="1016" width="223" height="44" as="geometry" />
        </mxCell>
        <mxCell id="dNh84J1RXSs0RukvZHGs-68" value="System prompts to input the NIC number&amp;nbsp;" style="rounded=1;whiteSpace=wrap;html=1;arcSize=40;fontColor=#000000;fillColor=#ffffc0;strokeColor=#ff0000;" vertex="1" parent="dNh84J1RXSs0RukvZHGs-74">
          <mxGeometry x="-33" y="4" width="162" height="40" as="geometry" />
        </mxCell>
        <mxCell id="dNh84J1RXSs0RukvZHGs-71" value="Local" style="text;html=1;align=center;verticalAlign=middle;resizable=0;points=[];autosize=1;strokeColor=none;fillColor=none;" vertex="1" parent="dNh84J1RXSs0RukvZHGs-74">
          <mxGeometry x="164" width="50" height="30" as="geometry" />
        </mxCell>
        <mxCell id="dNh84J1RXSs0RukvZHGs-75" value="" style="rhombus;whiteSpace=wrap;html=1;fontColor=#000000;fillColor=#ffffc0;strokeColor=#ff0000;" vertex="1" parent="1">
          <mxGeometry x="295" y="1020" width="80" height="40" as="geometry" />
        </mxCell>
        <mxCell id="dNh84J1RXSs0RukvZHGs-70" style="edgeStyle=orthogonalEdgeStyle;rounded=0;orthogonalLoop=1;jettySize=auto;html=1;entryX=0.468;entryY=0.16;entryDx=0;entryDy=0;entryPerimeter=0;" edge="1" parent="1" source="dNh84J1RXSs0RukvZHGs-75" target="dNh84J1RXSs0RukvZHGs-78">
          <mxGeometry relative="1" as="geometry">
            <mxPoint x="450" y="1040" as="targetPoint" />
          </mxGeometry>
        </mxCell>
        <mxCell id="dNh84J1RXSs0RukvZHGs-69" style="edgeStyle=orthogonalEdgeStyle;rounded=0;orthogonalLoop=1;jettySize=auto;html=1;exitX=0;exitY=0.5;exitDx=0;exitDy=0;entryX=1;entryY=0.5;entryDx=0;entryDy=0;" edge="1" parent="1" source="dNh84J1RXSs0RukvZHGs-75" target="dNh84J1RXSs0RukvZHGs-68">
          <mxGeometry relative="1" as="geometry" />
        </mxCell>
        <mxCell id="dNh84J1RXSs0RukvZHGs-77" style="edgeStyle=orthogonalEdgeStyle;rounded=0;orthogonalLoop=1;jettySize=auto;html=1;" edge="1" parent="1" source="dNh84J1RXSs0RukvZHGs-48" target="dNh84J1RXSs0RukvZHGs-75">
          <mxGeometry relative="1" as="geometry" />
        </mxCell>
        <mxCell id="dNh84J1RXSs0RukvZHGs-78" value="" style="shape=line;html=1;strokeWidth=6;strokeColor=#ff0000;rotation=-90;" vertex="1" parent="1">
          <mxGeometry x="375" y="1028" width="200" height="10" as="geometry" />
        </mxCell>
        <mxCell id="dNh84J1RXSs0RukvZHGs-79" value="" style="edgeStyle=orthogonalEdgeStyle;html=1;verticalAlign=bottom;endArrow=open;endSize=8;strokeColor=#ff0000;rounded=0;exitX=0.75;exitY=0.5;exitDx=0;exitDy=0;exitPerimeter=0;" edge="1" source="dNh84J1RXSs0RukvZHGs-78" parent="1" target="dNh84J1RXSs0RukvZHGs-66">
          <mxGeometry relative="1" as="geometry">
            <mxPoint x="550" y="1020" as="targetPoint" />
            <Array as="points" />
          </mxGeometry>
        </mxCell>
        <mxCell id="dNh84J1RXSs0RukvZHGs-80" value="Foreign" style="text;html=1;align=center;verticalAlign=middle;resizable=0;points=[];autosize=1;strokeColor=none;fillColor=none;" vertex="1" parent="1">
          <mxGeometry x="378" y="1016" width="60" height="30" as="geometry" />
        </mxCell>
        <mxCell id="dNh84J1RXSs0RukvZHGs-82" value="" style="group" vertex="1" connectable="0" parent="1">
          <mxGeometry x="429" y="1060" width="270" height="45" as="geometry" />
        </mxCell>
        <mxCell id="dNh84J1RXSs0RukvZHGs-83" value="System prompts to input the visa" style="rounded=1;whiteSpace=wrap;html=1;arcSize=40;fontColor=#000000;fillColor=#ffffc0;strokeColor=#ff0000;" vertex="1" parent="dNh84J1RXSs0RukvZHGs-82">
          <mxGeometry x="102" y="5" width="168" height="40" as="geometry" />
        </mxCell>
        <mxCell id="dNh84J1RXSs0RukvZHGs-84" value="" style="edgeStyle=orthogonalEdgeStyle;html=1;verticalAlign=bottom;endArrow=open;endSize=8;strokeColor=#ff0000;rounded=0;exitX=0.75;exitY=0.5;exitDx=0;exitDy=0;exitPerimeter=0;" edge="1" parent="1" target="dNh84J1RXSs0RukvZHGs-83">
          <mxGeometry relative="1" as="geometry">
            <mxPoint x="550" y="1123" as="targetPoint" />
            <mxPoint x="475" y="1085" as="sourcePoint" />
            <Array as="points" />
          </mxGeometry>
        </mxCell>
        <mxCell id="dNh84J1RXSs0RukvZHGs-101" style="edgeStyle=orthogonalEdgeStyle;rounded=0;orthogonalLoop=1;jettySize=auto;html=1;exitX=1;exitY=0.5;exitDx=0;exitDy=0;" edge="1" parent="1" source="dNh84J1RXSs0RukvZHGs-88">
          <mxGeometry relative="1" as="geometry">
            <mxPoint x="937" y="1085" as="sourcePoint" />
            <mxPoint x="1017" y="1085" as="targetPoint" />
          </mxGeometry>
        </mxCell>
        <mxCell id="dNh84J1RXSs0RukvZHGs-88" value="User upload&amp;nbsp; the visa photo" style="rounded=1;whiteSpace=wrap;html=1;arcSize=50;fontColor=#000000;fillColor=#ffffc0;strokeColor=#ff0000;" vertex="1" parent="1">
          <mxGeometry x="779" y="1065" width="151" height="40" as="geometry" />
        </mxCell>
        <mxCell id="dNh84J1RXSs0RukvZHGs-89" value="" style="edgeStyle=orthogonalEdgeStyle;rounded=0;orthogonalLoop=1;jettySize=auto;html=1;" edge="1" parent="1" source="dNh84J1RXSs0RukvZHGs-83" target="dNh84J1RXSs0RukvZHGs-88">
          <mxGeometry relative="1" as="geometry" />
        </mxCell>
        <mxCell id="dNh84J1RXSs0RukvZHGs-100" style="edgeStyle=orthogonalEdgeStyle;rounded=0;orthogonalLoop=1;jettySize=auto;html=1;" edge="1" parent="1" source="dNh84J1RXSs0RukvZHGs-90">
          <mxGeometry relative="1" as="geometry">
            <mxPoint x="1020" y="983" as="targetPoint" />
          </mxGeometry>
        </mxCell>
        <mxCell id="dNh84J1RXSs0RukvZHGs-90" value="User upload&amp;nbsp; the passport photo" style="rounded=1;whiteSpace=wrap;html=1;arcSize=40;fontColor=#000000;fillColor=#ffffc0;strokeColor=#ff0000;" vertex="1" parent="1">
          <mxGeometry x="779" y="963" width="151" height="40" as="geometry" />
        </mxCell>
        <mxCell id="dNh84J1RXSs0RukvZHGs-91" value="" style="edgeStyle=orthogonalEdgeStyle;rounded=0;orthogonalLoop=1;jettySize=auto;html=1;" edge="1" parent="1" source="dNh84J1RXSs0RukvZHGs-66" target="dNh84J1RXSs0RukvZHGs-90">
          <mxGeometry relative="1" as="geometry" />
        </mxCell>
        <mxCell id="dNh84J1RXSs0RukvZHGs-110" style="edgeStyle=orthogonalEdgeStyle;rounded=0;orthogonalLoop=1;jettySize=auto;html=1;entryX=0;entryY=0.5;entryDx=0;entryDy=0;" edge="1" parent="1" source="dNh84J1RXSs0RukvZHGs-92" target="dNh84J1RXSs0RukvZHGs-105">
          <mxGeometry relative="1" as="geometry">
            <mxPoint x="190" y="1260" as="targetPoint" />
            <Array as="points">
              <mxPoint x="122" y="1210" />
            </Array>
          </mxGeometry>
        </mxCell>
        <mxCell id="dNh84J1RXSs0RukvZHGs-92" value="User upload&amp;nbsp; the visa photo" style="rounded=1;whiteSpace=wrap;html=1;arcSize=50;fontColor=#000000;fillColor=#ffffc0;strokeColor=#ff0000;" vertex="1" parent="1">
          <mxGeometry x="39" y="1130" width="166" height="40" as="geometry" />
        </mxCell>
        <mxCell id="dNh84J1RXSs0RukvZHGs-97" style="edgeStyle=orthogonalEdgeStyle;rounded=0;orthogonalLoop=1;jettySize=auto;html=1;exitX=0.5;exitY=1;exitDx=0;exitDy=0;" edge="1" parent="1" source="dNh84J1RXSs0RukvZHGs-68" target="dNh84J1RXSs0RukvZHGs-92">
          <mxGeometry relative="1" as="geometry" />
        </mxCell>
        <mxCell id="dNh84J1RXSs0RukvZHGs-98" value="" style="shape=line;html=1;strokeWidth=6;strokeColor=#ff0000;rotation=-90;" vertex="1" parent="1">
          <mxGeometry x="920" y="1028" width="200" height="10" as="geometry" />
        </mxCell>
        <mxCell id="dNh84J1RXSs0RukvZHGs-99" value="" style="edgeStyle=orthogonalEdgeStyle;html=1;verticalAlign=bottom;endArrow=open;endSize=8;strokeColor=#ff0000;rounded=0;exitX=0.441;exitY=0.62;exitDx=0;exitDy=0;exitPerimeter=0;entryX=1;entryY=0.5;entryDx=0;entryDy=0;" edge="1" source="dNh84J1RXSs0RukvZHGs-98" parent="1" target="dNh84J1RXSs0RukvZHGs-105">
          <mxGeometry relative="1" as="geometry">
            <mxPoint x="580" y="1220" as="targetPoint" />
            <Array as="points">
              <mxPoint x="1110" y="1045" />
              <mxPoint x="1110" y="1210" />
            </Array>
          </mxGeometry>
        </mxCell>
        <mxCell id="dNh84J1RXSs0RukvZHGs-103" value="System verifies the &lt;br&gt;documents" style="rounded=1;whiteSpace=wrap;html=1;arcSize=40;fontColor=#000000;fillColor=#ffffc0;strokeColor=#ff0000;" vertex="1" parent="1">
          <mxGeometry x="521" y="1280" width="202" height="40" as="geometry" />
        </mxCell>
        <mxCell id="dNh84J1RXSs0RukvZHGs-104" value="" style="edgeStyle=orthogonalEdgeStyle;html=1;verticalAlign=bottom;endArrow=open;endSize=8;strokeColor=#ff0000;rounded=0;" edge="1" source="dNh84J1RXSs0RukvZHGs-103" parent="1">
          <mxGeometry relative="1" as="geometry">
            <mxPoint x="622" y="1400" as="targetPoint" />
          </mxGeometry>
        </mxCell>
        <mxCell id="dNh84J1RXSs0RukvZHGs-111" style="edgeStyle=orthogonalEdgeStyle;rounded=0;orthogonalLoop=1;jettySize=auto;html=1;exitX=0.5;exitY=1;exitDx=0;exitDy=0;entryX=0.5;entryY=0;entryDx=0;entryDy=0;" edge="1" parent="1" source="dNh84J1RXSs0RukvZHGs-105" target="dNh84J1RXSs0RukvZHGs-103">
          <mxGeometry relative="1" as="geometry" />
        </mxCell>
        <mxCell id="dNh84J1RXSs0RukvZHGs-105" value="" style="rhombus;whiteSpace=wrap;html=1;fontColor=#000000;fillColor=#ffffc0;strokeColor=#ff0000;" vertex="1" parent="1">
          <mxGeometry x="582" y="1190" width="80" height="40" as="geometry" />
        </mxCell>
        <mxCell id="dNh84J1RXSs0RukvZHGs-115" value="" style="group" vertex="1" connectable="0" parent="1">
          <mxGeometry x="612.75" y="1292.01" width="170" height="24" as="geometry" />
        </mxCell>
        <mxCell id="dNh84J1RXSs0RukvZHGs-114" value="" style="endArrow=none;html=1;rounded=0;strokeWidth=2;" edge="1" parent="dNh84J1RXSs0RukvZHGs-115">
          <mxGeometry width="50" height="50" relative="1" as="geometry">
            <mxPoint x="85" y="22.8" as="sourcePoint" />
            <mxPoint x="84.5" y="7.8" as="targetPoint" />
            <Array as="points">
              <mxPoint x="85" y="19.8" />
            </Array>
          </mxGeometry>
        </mxCell>
        <mxCell id="dNh84J1RXSs0RukvZHGs-112" value="" style="strokeWidth=2;html=1;shape=mxgraph.flowchart.annotation_2;align=left;labelPosition=right;pointerEvents=1;rotation=90;" vertex="1" parent="1">
          <mxGeometry x="689" y="1298" width="17.5" height="16.01" as="geometry" />
        </mxCell>
        <mxCell id="dNh84J1RXSs0RukvZHGs-125" value="" style="rhombus;whiteSpace=wrap;html=1;fontColor=#000000;fillColor=#ffffc0;strokeColor=#ff0000;" vertex="1" parent="1">
          <mxGeometry x="582" y="1400" width="80" height="40" as="geometry" />
        </mxCell>
        <mxCell id="dNh84J1RXSs0RukvZHGs-126" value="Valid" style="edgeStyle=orthogonalEdgeStyle;html=1;align=left;verticalAlign=bottom;endArrow=open;endSize=8;strokeColor=#ff0000;rounded=0;entryX=0;entryY=0.5;entryDx=0;entryDy=0;" edge="1" parent="1">
          <mxGeometry x="-0.5372" y="10" relative="1" as="geometry">
            <mxPoint x="783" y="1419.9999999999995" as="targetPoint" />
            <mxPoint x="662" y="1419.9999999999995" as="sourcePoint" />
            <mxPoint as="offset" />
          </mxGeometry>
        </mxCell>
        <mxCell id="dNh84J1RXSs0RukvZHGs-127" value="Invalid" style="edgeStyle=orthogonalEdgeStyle;html=1;align=left;verticalAlign=top;endArrow=open;endSize=8;strokeColor=#ff0000;rounded=0;entryX=0.5;entryY=0;entryDx=0;entryDy=0;" edge="1" parent="1" target="dNh84J1RXSs0RukvZHGs-130">
          <mxGeometry x="-0.2961" y="8" relative="1" as="geometry">
            <mxPoint x="622" y="1500" as="targetPoint" />
            <mxPoint x="622.0588235294117" y="1439.9705882352937" as="sourcePoint" />
            <mxPoint as="offset" />
          </mxGeometry>
        </mxCell>
        <mxCell id="dNh84J1RXSs0RukvZHGs-128" value="The system prompts the successfully validate identification message" style="rounded=1;whiteSpace=wrap;html=1;arcSize=40;fontColor=#000000;fillColor=#ffffc0;strokeColor=#ff0000;" vertex="1" parent="1">
          <mxGeometry x="783" y="1400" width="257" height="40" as="geometry" />
        </mxCell>
        <mxCell id="dNh84J1RXSs0RukvZHGs-129" value="" style="edgeStyle=orthogonalEdgeStyle;html=1;verticalAlign=bottom;endArrow=open;endSize=8;strokeColor=#ff0000;rounded=0;entryX=0.5;entryY=0;entryDx=0;entryDy=0;" edge="1" source="dNh84J1RXSs0RukvZHGs-128" parent="1" target="dNh84J1RXSs0RukvZHGs-138">
          <mxGeometry relative="1" as="geometry">
            <mxPoint x="843" y="1500" as="targetPoint" />
          </mxGeometry>
        </mxCell>
        <mxCell id="dNh84J1RXSs0RukvZHGs-135" style="edgeStyle=orthogonalEdgeStyle;rounded=0;orthogonalLoop=1;jettySize=auto;html=1;" edge="1" parent="1" source="dNh84J1RXSs0RukvZHGs-130" target="dNh84J1RXSs0RukvZHGs-132">
          <mxGeometry relative="1" as="geometry" />
        </mxCell>
        <mxCell id="dNh84J1RXSs0RukvZHGs-130" value="The system prompts the unsuccessfully &lt;br&gt;validate identification message" style="rounded=1;whiteSpace=wrap;html=1;arcSize=40;fontColor=#000000;fillColor=#ffffc0;strokeColor=#ff0000;" vertex="1" parent="1">
          <mxGeometry x="493.5" y="1525" width="257" height="50" as="geometry" />
        </mxCell>
        <mxCell id="dNh84J1RXSs0RukvZHGs-132" value="" style="rhombus;whiteSpace=wrap;html=1;fontColor=#000000;fillColor=#ffffc0;strokeColor=#ff0000;" vertex="1" parent="1">
          <mxGeometry x="582" y="1640" width="80" height="40" as="geometry" />
        </mxCell>
        <mxCell id="dNh84J1RXSs0RukvZHGs-133" value="" style="edgeStyle=orthogonalEdgeStyle;html=1;align=left;verticalAlign=bottom;endArrow=open;endSize=8;strokeColor=#ff0000;rounded=0;" edge="1" source="dNh84J1RXSs0RukvZHGs-132" parent="1">
          <mxGeometry x="-1" relative="1" as="geometry">
            <mxPoint x="622" y="1760" as="targetPoint" />
          </mxGeometry>
        </mxCell>
        <mxCell id="dNh84J1RXSs0RukvZHGs-134" value="&lt;br&gt;" style="edgeStyle=orthogonalEdgeStyle;html=1;align=left;verticalAlign=top;endArrow=open;endSize=8;strokeColor=#ff0000;rounded=0;entryX=0;entryY=0.5;entryDx=0;entryDy=0;" edge="1" source="dNh84J1RXSs0RukvZHGs-132" parent="1" target="dNh84J1RXSs0RukvZHGs-48">
          <mxGeometry x="-1" relative="1" as="geometry">
            <mxPoint x="80" y="1220" as="targetPoint" />
            <Array as="points">
              <mxPoint x="20" y="1660" />
              <mxPoint x="20" y="960" />
            </Array>
          </mxGeometry>
        </mxCell>
        <mxCell id="dNh84J1RXSs0RukvZHGs-136" value="Logout" style="rounded=1;whiteSpace=wrap;html=1;arcSize=40;fontColor=#000000;fillColor=#ffffc0;strokeColor=#ff0000;" vertex="1" parent="1">
          <mxGeometry x="564" y="1760" width="120" height="40" as="geometry" />
        </mxCell>
        <mxCell id="dNh84J1RXSs0RukvZHGs-137" value="" style="edgeStyle=orthogonalEdgeStyle;html=1;verticalAlign=bottom;endArrow=open;endSize=8;strokeColor=#ff0000;rounded=0;entryX=0;entryY=0.5;entryDx=0;entryDy=0;" edge="1" source="dNh84J1RXSs0RukvZHGs-136" parent="1" target="dNh84J1RXSs0RukvZHGs-148">
          <mxGeometry relative="1" as="geometry">
            <mxPoint x="870" y="1880" as="targetPoint" />
            <Array as="points">
              <mxPoint x="624" y="1880" />
              <mxPoint x="872" y="1880" />
            </Array>
          </mxGeometry>
        </mxCell>
        <mxCell id="dNh84J1RXSs0RukvZHGs-146" value="" style="group" vertex="1" connectable="0" parent="1">
          <mxGeometry x="851.5" y="1642" width="318.5" height="220" as="geometry" />
        </mxCell>
        <mxCell id="dNh84J1RXSs0RukvZHGs-138" value="" style="rhombus;whiteSpace=wrap;html=1;fontColor=#000000;fillColor=#ffffc0;strokeColor=#ff0000;" vertex="1" parent="dNh84J1RXSs0RukvZHGs-146">
          <mxGeometry x="19.5" width="79" height="40" as="geometry" />
        </mxCell>
        <mxCell id="dNh84J1RXSs0RukvZHGs-139" value="" style="edgeStyle=orthogonalEdgeStyle;html=1;align=left;verticalAlign=bottom;endArrow=open;endSize=8;strokeColor=#ff0000;rounded=0;entryX=0.5;entryY=0;entryDx=0;entryDy=0;" edge="1" source="dNh84J1RXSs0RukvZHGs-138" parent="dNh84J1RXSs0RukvZHGs-146" target="dNh84J1RXSs0RukvZHGs-144">
          <mxGeometry x="-1" relative="1" as="geometry">
            <mxPoint x="198.5" y="20" as="targetPoint" />
          </mxGeometry>
        </mxCell>
        <mxCell id="dNh84J1RXSs0RukvZHGs-140" value="" style="edgeStyle=orthogonalEdgeStyle;html=1;align=left;verticalAlign=top;endArrow=open;endSize=8;strokeColor=#ff0000;rounded=0;entryX=0.5;entryY=0;entryDx=0;entryDy=0;" edge="1" source="dNh84J1RXSs0RukvZHGs-138" parent="dNh84J1RXSs0RukvZHGs-146" target="dNh84J1RXSs0RukvZHGs-141">
          <mxGeometry x="-0.3277" y="10" relative="1" as="geometry">
            <mxPoint x="58.5" y="100" as="targetPoint" />
            <mxPoint as="offset" />
          </mxGeometry>
        </mxCell>
        <mxCell id="dNh84J1RXSs0RukvZHGs-141" value="Logout" style="rounded=1;whiteSpace=wrap;html=1;arcSize=40;fontColor=#000000;fillColor=#ffffc0;strokeColor=#ff0000;" vertex="1" parent="dNh84J1RXSs0RukvZHGs-146">
          <mxGeometry y="120" width="120" height="40" as="geometry" />
        </mxCell>
        <mxCell id="dNh84J1RXSs0RukvZHGs-142" value="" style="edgeStyle=orthogonalEdgeStyle;html=1;verticalAlign=bottom;endArrow=open;endSize=8;strokeColor=#ff0000;rounded=0;" edge="1" source="dNh84J1RXSs0RukvZHGs-141" parent="dNh84J1RXSs0RukvZHGs-146">
          <mxGeometry relative="1" as="geometry">
            <mxPoint x="60" y="220" as="targetPoint" />
          </mxGeometry>
        </mxCell>
        <mxCell id="dNh84J1RXSs0RukvZHGs-147" value="" style="group" vertex="1" connectable="0" parent="dNh84J1RXSs0RukvZHGs-146">
          <mxGeometry x="229.5" y="120" width="120" height="100" as="geometry" />
        </mxCell>
        <mxCell id="dNh84J1RXSs0RukvZHGs-144" value="Go to main page" style="rounded=1;whiteSpace=wrap;html=1;arcSize=40;fontColor=#000000;fillColor=#ffffc0;strokeColor=#ff0000;" vertex="1" parent="dNh84J1RXSs0RukvZHGs-147">
          <mxGeometry width="120" height="40" as="geometry" />
        </mxCell>
        <mxCell id="dNh84J1RXSs0RukvZHGs-148" value="" style="rhombus;whiteSpace=wrap;html=1;fontColor=#000000;fillColor=#ffffc0;strokeColor=#ff0000;" vertex="1" parent="1">
          <mxGeometry x="872" y="1861" width="80" height="40" as="geometry" />
        </mxCell>
        <mxCell id="dNh84J1RXSs0RukvZHGs-150" value="" style="edgeStyle=orthogonalEdgeStyle;html=1;align=left;verticalAlign=top;endArrow=open;endSize=8;strokeColor=#ff0000;rounded=0;" edge="1" source="dNh84J1RXSs0RukvZHGs-148" parent="1">
          <mxGeometry x="-1" relative="1" as="geometry">
            <mxPoint x="912" y="1980" as="targetPoint" />
            <Array as="points">
              <mxPoint x="912" y="1970" />
            </Array>
          </mxGeometry>
        </mxCell>
        <mxCell id="dNh84J1RXSs0RukvZHGs-145" value="" style="edgeStyle=orthogonalEdgeStyle;html=1;verticalAlign=bottom;endArrow=open;endSize=8;strokeColor=#ff0000;rounded=0;entryX=1;entryY=0.5;entryDx=0;entryDy=0;" edge="1" source="dNh84J1RXSs0RukvZHGs-144" parent="1" target="dNh84J1RXSs0RukvZHGs-148">
          <mxGeometry relative="1" as="geometry">
            <mxPoint x="1050" y="1880" as="targetPoint" />
            <Array as="points">
              <mxPoint x="1141" y="1880" />
              <mxPoint x="952" y="1880" />
            </Array>
          </mxGeometry>
        </mxCell>
        <mxCell id="dNh84J1RXSs0RukvZHGs-152" value="" style="ellipse;html=1;shape=endState;fillColor=#000000;strokeColor=#ff0000;" vertex="1" parent="1">
          <mxGeometry x="897" y="1980" width="30" height="30" as="geometry" />
        </mxCell>
      </root>
    </mxGraphModel>
  </diagram>
</mxfile>
